<svg width="20" height="20" viewBox="0 0 20 20" fill="none" xmlns="http://www.w3.org/2000/svg">
<path fill-rule="evenodd" clip-rule="evenodd" d="M4.815 15.8333H7.7775C8.23833 15.8333 8.61167 16.2058 8.61167 16.6667C8.61167 17.1275 8.23833 17.5 7.77833 17.5H4.815C3.53833 17.5 2.5 16.4617 2.5 15.1858V4.815C2.5 3.53833 3.53833 2.5 4.815 2.5H7.77833C8.23833 2.5 8.61167 2.87333 8.61167 3.33333C8.61167 3.79333 8.23833 4.16667 7.77833 4.16667H4.815C4.4575 4.16667 4.16667 4.4575 4.16667 4.815V15.1858C4.16667 15.5425 4.4575 15.8333 4.815 15.8333ZM17.4358 9.68167C17.52 9.885 17.52 10.115 17.4358 10.3183C17.3933 10.4208 17.3325 10.5125 17.255 10.5892L13.5517 14.2925C13.3892 14.455 13.1758 14.5367 12.9625 14.5367C12.7492 14.5367 12.5358 14.455 12.3733 14.2925C12.0475 13.9667 12.0475 13.44 12.3733 13.1142L14.6542 10.8333H7.77751C7.31751 10.8333 6.94417 10.46 6.94417 10C6.94417 9.54 7.31751 9.16667 7.77751 9.16667H14.655L12.3733 6.885C12.0475 6.55917 12.0475 6.0325 12.3733 5.70667C12.6992 5.38083 13.2258 5.38083 13.5517 5.70667L17.255 9.41C17.3325 9.4875 17.3933 9.57917 17.4358 9.68167Z" fill="#808080"/>
</svg>
