<svg width="88" height="88" viewBox="0 0 88 88" fill="none" xmlns="http://www.w3.org/2000/svg">
<g clip-path="url(#clip0_628_17729)">
<path d="M87.9943 44.7425C87.7743 56.6637 82.7968 67.485 74.9043 75.2675L74.7943 75.3775C73.9556 76.2575 73.0343 77.0412 72.1131 77.8387C71.2193 78.595 70.2843 79.3237 69.3218 80.0112C67.7131 81.1387 66.0356 82.1425 64.2756 83.0225C58.2118 86.24 51.3506 88 43.9943 88C36.6931 88 29.8731 86.24 23.8506 83.1187V83.0775C22.0493 82.1837 20.3168 81.125 18.6668 79.9562C17.6081 79.2275 16.6043 78.43 15.6281 77.6187C14.7893 76.9175 13.9918 76.2025 13.2081 75.4187L13.0568 75.2675C4.79306 67.1825 -0.211936 55.7975 0.00806446 43.2575C0.351814 19.1812 20.0281 0 44.0493 0H44.7506C69.0331 0.39875 88.338 20.4187 87.9943 44.7425Z" fill="#808080"/>
<path d="M44.0731 17.6045C34.4743 17.6045 26.4759 25.6042 26.4759 35.2045C26.4759 44.8047 34.2983 52.8045 44.0731 52.8045C53.672 52.8045 61.6704 44.8047 61.6704 35.2045C61.6704 25.6042 53.8521 17.6045 44.0731 17.6045Z" fill="#EAEAEA"/>
<path d="M74.9037 75.2675L74.7937 75.3775C73.9549 76.2575 73.0337 77.0412 72.1124 77.8387C71.2187 78.595 70.2837 79.3237 69.3212 80.0112C67.7124 81.1387 66.0349 82.1425 64.2749 83.0225C58.2112 86.24 51.3499 88 43.9937 88C36.6925 88 29.8725 86.24 23.85 83.1187C22.0487 82.225 20.3162 81.125 18.6662 79.9562C17.6075 79.2275 16.6037 78.43 15.6275 77.6187C14.7887 76.9175 13.9912 76.2025 13.2075 75.4187L13.0562 75.2675L17.195 66.165C18.7625 62.7137 22.2137 60.5 26.0087 60.5H61.9237C65.7324 60.5 69.1699 62.7137 70.7512 66.165L74.9037 75.2675Z" fill="#EAEAEA"/>
<path d="M1.00682 43.275L1.00686 43.2718C1.34273 19.7478 20.5681 1 44.0482 1H44.7412C68.4638 1.39397 87.328 20.9533 86.9934 44.7258C86.7779 56.3758 81.914 66.9501 74.2011 74.5554L74.1961 74.5604L74.0861 74.6704L74.0777 74.6789L74.0694 74.6876C73.3291 75.4642 72.5189 76.1648 71.6604 76.9072C71.5944 76.9642 71.5282 77.0215 71.4616 77.0791C70.591 77.8156 69.6804 78.5253 68.7435 79.1947C67.1751 80.2936 65.541 81.2712 63.8273 82.1281L63.8165 82.1335L63.8058 82.1391C57.8871 85.2796 51.1869 87 43.9932 87C36.8554 87 30.1929 85.28 24.3096 82.2309L24.3018 82.2269L24.294 82.2229C22.5544 81.3598 20.8679 80.2906 19.2437 79.1402L19.2438 79.1401L19.2327 79.1325C18.2099 78.4285 17.2326 77.6527 16.2662 76.8497C15.4459 76.1638 14.6719 75.4695 13.9141 74.7116L13.7628 74.5604L13.7629 74.5603L13.7551 74.5527C5.68287 66.6551 0.79176 55.533 1.00682 43.275Z" stroke="#808080" stroke-width="2"/>
</g>
<defs>
<clipPath id="clip0_628_17729">
<rect width="88" height="88" fill="white"/>
</clipPath>
</defs>
</svg>
