<svg width="24" height="24" viewBox="0 0 24 24" fill="none" xmlns="http://www.w3.org/2000/svg">
<g clip-path="url(#clip0_1458_12193)">
<path d="M11.9999 2.5C11.9999 2.5 8.54294 4.886 3.61694 4.886V10.3985C3.61694 15.556 7.03894 20.088 11.9999 21.5C16.9609 20.088 20.3829 15.556 20.3829 10.3985V4.886C15.4569 4.886 11.9999 2.5 11.9999 2.5Z" fill="#3E9E3E"/>
<path d="M11.8013 6.76172C10.6584 6.76172 9.72876 7.69139 9.72876 8.83428V10.4282H10.6308V8.83428C10.6308 8.18849 11.1561 7.66313 11.8019 7.66313C12.4477 7.66313 12.9731 8.18849 12.9731 8.83428V10.4282H13.8751V8.83428C13.8739 7.69139 12.9442 6.76172 11.8013 6.76172Z" fill="white"/>
<path d="M15.0449 10.0059H11.8012H8.55746C8.40876 10.0059 8.28833 10.1263 8.28833 10.275V15.6816C8.28833 15.8303 8.40876 15.9507 8.55746 15.9507H11.8012H15.0449C15.1936 15.9507 15.314 15.8303 15.314 15.6816V10.275C15.314 10.1263 15.1936 10.0059 15.0449 10.0059Z" fill="white"/>
<path d="M11.8013 11.6621C11.3546 11.6621 10.9915 12.0253 10.9915 12.472C10.9915 12.824 11.2176 13.1245 11.5322 13.2357V14.0247C11.5322 14.1734 11.6526 14.2938 11.8013 14.2938C11.95 14.2938 12.0704 14.1734 12.0704 14.0247V13.2357C12.385 13.1245 12.6112 12.824 12.6112 12.472C12.6105 12.0253 12.2474 11.6621 11.8013 11.6621Z" fill="#3E9E3E"/>
</g>
<defs>
<clipPath id="clip0_1458_12193">
<rect width="24" height="24" fill="white"/>
</clipPath>
</defs>
</svg>
